<?xml version="1.0" encoding="UTF-8"?>
<svg width="40px" height="40px" viewBox="0 0 40 40" version="1.1" xmlns="http://www.w3.org/2000/svg" xmlns:xlink="http://www.w3.org/1999/xlink">
    <title>DHL logo</title>
    <g id="Crear-Envio" stroke="none" stroke-width="1" fill="none" fill-rule="evenodd">
        <g id="Homepage-(Mis-Ordenes)" transform="translate(-1075.000000, -1009.000000)">
            <g id="DHL-logo" transform="translate(1075.000000, 1009.000000)">
                <rect id="Rectangle" fill="#FFCD00" x="0" y="0" width="40" height="40" rx="3.08333344"></rect>
                <g id="DHL_Logo" transform="translate(2.000000, 18.000000)" fill="#D40511" fill-rule="nonzero">
                    <polygon id="Path" points="0 4.62686567 4.31667827 4.62686567 4.06859331 4.97512438 0 4.97512438"></polygon>
                    <polygon id="Path" points="35.6001915 4.97512438 30.3159819 4.97512438 30.5888753 4.62686567 35.625 4.62686567 35.625 4.97512438"></polygon>
                    <polygon id="Path" points="0 3.9800995 4.81284819 3.9800995 4.53995474 4.32835821 0 4.32835821"></polygon>
                    <polygon id="Path" points="0 3.33333333 5.30901811 3.33333333 5.03612465 3.68159204 0 3.68159204"></polygon>
                    <polygon id="Path" points="35.6001915 4.32835821 30.8121518 4.32835821 31.0850453 3.9800995 35.625 3.9800995 35.625 4.32835821"></polygon>
                    <polygon id="Path" points="31.5564067 3.33333333 35.6001915 3.33333333 35.6001915 3.68159204 31.2835132 3.68159204"></polygon>
                    <path d="M4.66399721,4.97512438 L6.94637883,1.91542289 C6.94637883,1.91542289 9.4768454,1.91542289 9.77454735,1.91542289 C10.0970578,1.91542289 10.0970578,2.039801 9.92339833,2.23880597 C9.77454735,2.43781095 9.5016539,2.81094527 9.35280292,3.00995025 C9.27837744,3.13432836 9.12952646,3.30845771 9.60088788,3.30845771 C10.1218663,3.30845771 13.3965877,3.30845771 13.3965877,3.30845771 C13.0988858,3.75621891 12.056929,5 10.2211003,5 C8.73259053,4.97512438 4.66399721,4.97512438 4.66399721,4.97512438 Z" id="Path"></path>
                    <polygon id="Path" points="17.7380745 3.33333333 16.4976497 5 13.2477368 5 14.4881616 3.33333333"></polygon>
                    <polygon id="Path" points="22.4764972 3.33333333 21.2360724 5 17.961351 5 19.2017758 3.33333333"></polygon>
                    <path d="M23.5432625,3.33333333 C23.5432625,3.33333333 23.2951776,3.65671642 23.1959436,3.80597015 C22.7741992,4.35323383 23.1463266,5 24.4859854,5 C26.0241121,5 29.7453865,5 29.7453865,5 L30.9858113,3.33333333 L23.5432625,3.33333333 Z" id="Path"></path>
                    <path d="M6.27654944,0.0248756219 L5.13535864,1.54228856 C5.13535864,1.54228856 11.0149721,1.54228856 11.3374826,1.54228856 C11.659993,1.54228856 11.659993,1.66666667 11.4863336,1.86567164 C11.3374826,2.06467662 11.0645891,2.43781095 10.9157382,2.63681592 C10.8413127,2.73631841 10.6924617,2.93532338 11.1638231,2.93532338 C11.6848015,2.93532338 13.6942897,2.93532338 13.6942897,2.93532338 C13.6942897,2.93532338 14.1160341,2.3880597 14.4385446,1.91542289 C14.909906,1.29353234 14.4881616,0 12.8259923,0 C11.3374826,0.0248756219 6.27654944,0.0248756219 6.27654944,0.0248756219 Z" id="Path"></path>
                    <polygon id="Path" points="22.7493907 2.93532338 14.761055 2.93532338 16.9442026 0.0248756219 20.2189241 0.0248756219 18.9784993 1.69154229 20.4422006 1.69154229 21.6826253 0.0248756219 24.9573468 0.0248756219"></polygon>
                    <polygon id="Path" points="29.472493 0.0248756219 27.2893454 2.93532338 23.816156 2.93532338 25.9993036 0.0248756219"></polygon>
                </g>
            </g>
        </g>
    </g>
</svg>