<?xml version="1.0" encoding="UTF-8"?>
<svg width="40px" height="40px" viewBox="0 0 40 40" version="1.1" xmlns="http://www.w3.org/2000/svg" xmlns:xlink="http://www.w3.org/1999/xlink">
    <title>Fedex logo</title>
    <g id="Crear-Envio" stroke="none" stroke-width="1" fill="none" fill-rule="evenodd">
        <g id="Homepage-(Mis-Ordenes)" transform="translate(-1074.081000, -914.000000)">
            <g id="Fedex-logo" transform="translate(1074.081000, 914.000000)">
                <rect id="Rectangle" fill="#4D148C" x="0" y="0" width="40" height="40" rx="5.55"></rect>
                <g id="fedex-express-seeklogo.com" transform="translate(6.000000, 16.000000)">
                    <polyline id="Fill-2" fill="#E5702A" points="25.0103409 8.6850554 23.8860168 7.33471446 22.7722395 8.6850554 20.4288694 8.6850554 22.7197047 5.92833128 20.4288694 3.17160716 22.8456688 3.17160716 23.9805396 4.51065442 25.0732235 3.17160716 27.4060467 3.17160716 25.1257582 5.9170376 27.437289 8.68484231 25.0103409 8.6850554"></polyline>
                    <polyline id="Fill-3" fill="#E5702A" points="15.9267971 8.6850554 15.9267971 0 20.4288694 0 20.4288694 1.93590776 17.8337702 1.93590776 17.8337702 3.17160716 20.4288694 3.17160716 20.4288694 5.03399943 17.8337702 5.03399943 17.8337702 6.74360735 20.4288694 6.74360735 20.4288694 8.6850554 15.9267971 8.6850554"></polyline>
                    <path d="M14.0279829,0 L14.0279829,3.55431386 L14.0070884,3.55431386 C13.586611,3.03672223 13.0612631,2.85666256 12.4519392,2.85666256 C11.2032429,2.85666256 10.2627906,3.7659106 9.9328562,4.96730277 C9.55595888,3.64338479 8.58506025,2.8321574 7.14552741,2.8321574 C5.97623034,2.8321574 5.0532896,3.39407141 4.5713227,4.30971209 L4.5713227,3.17160716 L2.15452337,3.17160716 L2.15452337,1.93590776 L4.79180962,1.93590776 L4.79180962,0 L0,0 L0,8.6850554 L2.15452337,8.6850554 L2.15452337,5.03399943 L4.30168391,5.03399943 C4.23760739,5.30249077 4.20338018,5.58952079 4.20338018,5.89253244 C4.20338018,7.70420968 5.4960544,8.97549484 7.14552741,8.97549484 C8.53252546,8.97549484 9.4467104,8.27805663 9.93007027,7.00677147 L8.08398979,7.00677147 C7.83425054,7.38905199 7.64480691,7.50220191 7.14552741,7.50220191 C6.56664974,7.50220191 6.06756924,6.96159674 6.06756924,6.32020078 L9.82679164,6.32020078 C9.98976889,7.75897339 11.0364848,9 12.4728337,9 C13.0927044,9 13.6602393,8.67376172 14.0070884,8.12228904 L14.0279829,8.12228904 L14.0279829,8.6850554 L15.9267971,8.6850554 L15.9267971,0 L14.0279829,0 Z M6.12746686,5.05999621 C6.2472621,4.50873662 6.6466459,4.14797803 7.14552741,4.14797803 C7.69455576,4.14797803 8.07384102,4.49744294 8.17373672,5.05999621 C8.21572476,5.05999621 6.12746686,5.05999621 6.12746686,5.05999621 Z M12.8754014,7.36284213 C12.1753355,7.36284213 11.7403316,6.66412539 11.7403316,5.93493702 C11.7403316,5.15524671 12.1186219,4.40581494 12.8754014,4.40581494 C13.6600403,4.40581494 13.9722642,5.15524671 13.9722642,5.93493702 C13.9722642,6.67414054 13.6411358,7.36284213 12.8754014,7.36284213 L12.8754014,7.36284213 Z" id="Fill-4" fill="#FFFFFE"></path>
                    <path d="M27.956866,8.12548537 C27.956866,7.81799886 28.1898897,7.56804622 28.479627,7.56804622 C28.7683693,7.56804622 29,7.81799886 29,8.12548537 C29,8.4361682 28.7683693,8.68526849 28.479627,8.68526849 C28.1898897,8.68526849 27.956866,8.4361682 27.956866,8.12548537 Z M28.9084621,8.12548537 C28.9084621,7.87297566 28.7170285,7.66606686 28.479627,7.66606686 C28.2410315,7.66606686 28.0484039,7.87297566 28.0484039,8.12548537 C28.0484039,8.38097831 28.2410315,8.58746093 28.479627,8.58746093 C28.7170285,8.58746093 28.9084621,8.38097831 28.9084621,8.12548537 Z M28.3685875,8.16234965 L28.3685875,8.44639644 L28.2728707,8.44639644 L28.2728707,7.78965811 L28.4714682,7.78965811 C28.5837016,7.78965811 28.7003129,7.82268681 28.7003129,7.97099631 C28.7003129,8.04642959 28.6573299,8.10609433 28.5751448,8.12420684 L28.5751448,8.12719007 C28.6603148,8.1450895 28.6696676,8.18515011 28.6794184,8.25632162 C28.6877762,8.31833033 28.694741,8.3867317 28.7156356,8.44639644 L28.5934524,8.44639644 C28.5864875,8.40953215 28.5769357,8.36776683 28.5725578,8.32877166 C28.565593,8.27251634 28.565593,8.22030969 28.5379326,8.18919879 C28.5142522,8.16234965 28.4824129,8.16533289 28.4489817,8.16234965 L28.3685875,8.16234965 Z M28.4698762,8.06049342 C28.5602201,8.057084 28.5809157,8.0168103 28.5809157,7.96652145 C28.5809157,7.91772422 28.5602201,7.89215361 28.4840049,7.89215361 L28.3685875,7.89215361 L28.3685875,8.06049342 L28.4698762,8.06049342 L28.4698762,8.06049342 Z" id="Fill-12" fill="#E5702A"></path>
                </g>
            </g>
        </g>
    </g>
</svg>