<?xml version="1.0" encoding="UTF-8"?>
<svg width="62px" height="62px" viewBox="0 0 62 62" version="1.1" xmlns="http://www.w3.org/2000/svg" xmlns:xlink="http://www.w3.org/1999/xlink">
    <title>Group</title>
    <g id="New-Crear-Envio" stroke="none" stroke-width="1" fill="none" fill-rule="evenodd">
        <g id="Crear-Envio-NEW-Copy-8" transform="translate(-331, -101)">
            <g id="Group" transform="translate(331, 101)">
                <rect id="Rectangle" fill="#7E00FB" x="0" y="0" width="62" height="62" rx="10"></rect>
                <g id="White-Balloon" transform="translate(16, 9)" fill="#FFFFFF" fill-rule="nonzero">
                    <path d="M25.0300468,31.8858121 C25.0041172,31.7780861 24.9233365,31.6913068 24.8166262,31.659388 L18.0450095,29.6285534 C17.9382992,29.5966346 17.8236106,29.6235661 17.7428299,29.7003707 L12.5977974,34.5500357 C12.5170167,34.6258429 12.4831087,34.7395537 12.5080411,34.8482772 L14.1356226,41.7297743 C14.1615522,41.8375003 14.2423329,41.9242795 14.3490432,41.9561984 L21.1206599,43.987033 C21.1495813,43.9960101 21.1804974,44 21.2104162,44 C21.288205,44 21.3649965,43.9700761 21.4238368,43.9152156 L26.5688693,39.0655506 C26.64965,38.9897434 26.6835579,38.8760327 26.6586256,38.7673092 L25.0310441,31.8858121 L25.0300468,31.8858121 Z M18.1108308,30.5522041 L23.9320277,32.2987618 L22.9586701,33.2164277 L22.8529571,33.316174 L17.0317602,31.5696163 L18.1108308,30.5522041 Z M14.9763402,33.5076869 L20.8573746,35.1973892 L19.5100323,36.468157 L13.6888355,34.7215994 L14.9763402,33.5076869 Z M21.4906554,42.5955721 L20.3278123,37.9453997 L20.1153889,37.0935663 L21.3470453,35.9953596 L21.8855833,38.1498796 C21.9005427,38.2077325 21.9464181,38.2536158 22.0062557,38.2705726 C22.0232097,38.27556 22.0401636,38.2775549 22.0571176,38.2775549 C22.1009985,38.2775549 22.1448793,38.2615955 22.17779,38.232669 L23.8293065,36.7604137 C23.875182,36.7195177 23.8941306,36.6586725 23.8801685,36.6018171 L23.2947577,34.2607715 L24.4655792,33.2164277 L25.8408457,38.7184335 L21.4916527,42.5965696 L21.4906554,42.5955721 Z" id="Shape"></path>
                    <path d="M24.0750892,3.27584946 C24.0579108,3.27174392 24.0407324,3.27174392 24.0225435,3.27071753 C23.6971642,2.79242154 23.3283337,2.33978521 22.9281778,1.93641542 C21.4366878,0.433785976 19.7047001,-0.229259532 18.0515309,0.0704452486 C16.539831,0.344490373 15.2979332,1.33597948 14.4602331,2.93816839 C14.1308119,3.56734315 13.926692,4.16983187 13.8054327,4.60501964 C13.5416936,4.23654698 13.1273908,3.71822193 12.5736397,3.22247738 C11.2347344,2.02263187 9.72808697,1.53817756 8.21840805,1.82248655 C6.56725988,2.13348158 5.17580883,3.37232977 4.30072051,5.31322614 C4.06527527,5.83463035 3.87732328,6.38887891 3.73787502,6.95339134 C3.72170711,6.96057605 3.70553919,6.96673436 3.69038178,6.97699822 C3.64693051,7.00778981 2.60410009,7.74268236 1.63200429,8.95279173 C0.322403296,10.5826931 -0.215179827,12.2926525 0.0778636049,13.898947 C0.813503669,17.9295657 3.89955416,20.263568 5.55777578,21.517812 C5.78917905,21.6922977 5.98824648,21.8431765 6.14487314,21.9714747 C9.04095065,24.350638 17.5291052,28.559848 17.8888413,28.7374128 C17.9120827,28.748703 17.9353241,28.7569141 17.9595759,28.7620461 C17.9595759,28.7620461 17.9595759,28.7620461 17.9605864,28.7620461 C17.9777648,28.7661516 17.9939327,28.7661516 18.0111112,28.767178 C18.0161636,28.767178 18.0222266,28.7692308 18.0272791,28.7692308 C18.0272791,28.7692308 18.0293001,28.7692308 18.0303105,28.7692308 C18.0565834,28.7692308 18.0818458,28.7651252 18.1060976,28.7589669 C18.1151921,28.7569141 18.1222656,28.7528086 18.13136,28.7497294 C18.1475279,28.7435711 18.1647063,28.7374128 18.1798637,28.7292017 C18.1889582,28.7240698 18.1970422,28.7168851 18.2061366,28.7107268 C18.219273,28.7014893 18.2324095,28.6922518 18.2435249,28.6809616 C18.2516089,28.6727505 18.2586823,28.663513 18.2667663,28.6542755 C18.2738397,28.6460644 18.2809132,28.6399061 18.2869762,28.6306686 C18.2970811,28.6152728 18.3071861,28.6009034 18.317291,28.5855076 C18.7184574,28.1636629 25.1098357,21.4172262 26.9762192,18.1871887 C27.0782791,18.0116766 27.2126749,17.7992147 27.3682911,17.552882 C28.4848876,15.7864713 30.5644855,12.4989562 29.8561288,8.46217911 C29.1780869,4.60296686 24.2842616,3.32819516 24.0760997,3.27482307 L24.0750892,3.27584946 Z M5.09699025,6.15999478 C5.85587169,4.4880116 7.04017135,3.42467547 8.43162241,3.16397336 C8.67110963,3.11881237 8.90453388,3.09828464 9.12987417,3.09828464 C11.6247853,3.09828464 13.2577446,5.61908924 13.4770219,5.97729803 L15.8274323,18.7814663 L17.3270063,27.2594166 C11.0386985,22.7310005 7.90313373,18.9169493 6.27724793,15.9855902 C5.13033657,13.8589179 4.34922425,11.4961768 4.36135019,9.01334852 C4.43814777,8.05778293 4.69077142,7.05397719 5.09699025,6.15794201 L5.09699025,6.15999478 Z M26.3638595,17.1269317 C26.2132958,17.3701852 26.082942,17.579568 25.980882,17.760212 C24.9754399,19.532781 22.4623398,22.5236705 20.4949069,24.7591397 C21.2982501,23.4053363 22.2076952,21.7159046 23.0140699,19.835565 C24.0043546,17.5261959 24.671281,15.3174128 25.0168702,13.2389806 C25.5756737,10.1023443 25.2199796,8.04033436 25.0027232,6.77890568 C24.9057158,6.21952518 24.7177638,5.63140587 24.4560457,5.05047126 C24.3883425,4.86674813 24.3176079,4.68405138 24.2418208,4.50546017 C25.4928131,4.97041314 28.1938652,6.25442232 28.6334303,8.8060185 C29.2629684,12.4589271 27.3773855,15.496004 26.3638595,17.1269317 Z" id="Shape"></path>
                </g>
            </g>
        </g>
    </g>
</svg>