<?xml version="1.0" encoding="UTF-8"?>
<svg width="62px" height="62px" viewBox="0 0 62 62" version="1.1" xmlns="http://www.w3.org/2000/svg" xmlns:xlink="http://www.w3.org/1999/xlink">
    <title>Group 4</title>
    <g id="New-Crear-Envio" stroke="none" stroke-width="1" fill="none" fill-rule="evenodd">
        <g id="Crear-Envio-NEW-Copy-11" transform="translate(-331, -101)">
            <g id="Group-4" transform="translate(331, 101)">
                <rect id="Rectangle" fill="#95BF46" x="0" y="0" width="62" height="62" rx="10"></rect>
                <g id="Group" transform="translate(12, 9)">
                    <g id="Group-7" fill="#FFFFFF">
                        <g id="shopify-logo-copy" fill-rule="nonzero">
                            <path d="M33.2825781,8.51946875 C33.2526776,8.29955708 33.0624158,8.17785253 32.9051784,8.16444696 C32.7482384,8.15119201 29.426764,7.90190856 29.426764,7.90190856 C29.426764,7.90190856 27.1199696,5.58304536 26.8667831,5.32638132 C26.6134477,5.06986791 26.1186778,5.14789137 25.9266309,5.20512865 C25.8983668,5.21356362 25.4226379,5.36222994 24.6357067,5.60880214 C23.8651389,3.36359429 22.5051909,1.30034076 20.1127118,1.30034076 C20.0466631,1.30034076 19.9786806,1.303052 19.9106981,1.30696824 C19.2302778,0.395841019 18.3874135,0 17.6593906,0 C12.0861624,0 9.42353825,7.05449548 8.5887069,10.6393571 C6.42308415,11.3188239 4.88462623,11.8018765 4.68811656,11.8643856 C3.47930694,12.2483273 3.44107607,12.2868872 3.28235101,13.4402185 C3.16289812,14.3133883 0,39.0804138 0,39.0804138 L24.645971,43.7560976 L38,40.830971 C38,40.830971 33.312181,8.73938043 33.2827268,8.51946875 L33.2825781,8.51946875 Z M23.2735273,6.03537055 L21.1880852,6.68892998 C21.188829,6.54011303 21.1895728,6.39370608 21.1895728,6.23359231 C21.1895728,4.83820753 20.9982697,3.71469985 20.6913814,2.82405756 C21.9241411,2.98070697 22.745138,4.40094479 23.2735273,6.03537055 Z M19.1621465,3.10075465 C19.5048855,3.97030952 19.7277254,5.21823298 19.7277254,6.90221418 C19.7277254,6.98837136 19.7269816,7.06714794 19.7262378,7.14682826 C18.3700088,7.57219167 16.8962607,8.0340062 15.4192399,8.49732696 C16.2485672,5.25649159 17.803091,3.69120244 19.1621465,3.10075465 Z M17.5063183,1.51362496 C17.7468604,1.51362496 17.9891876,1.59631778 18.2211018,1.7579378 C16.4349613,2.60896587 14.5204425,4.7523516 13.7119414,9.03264621 L10.3074598,10.1002722 C11.2544549,6.83548755 13.5030848,1.51362496 17.5061696,1.51362496 L17.5063183,1.51362496 Z" id="Shape"></path>
                            <path d="M33.6582518,7.99058368 C33.4937056,7.97726387 30.011252,7.72676057 30.011252,7.72676057 C30.011252,7.72676057 27.5926561,5.39655013 27.3271986,5.13863011 C27.227847,5.04266692 27.0938705,4.99347443 26.9538112,4.97228381 L25,43.7560976 L39,40.8169598 C39,40.8169598 34.0848243,8.56833056 34.0539426,8.34734276 C34.0225931,8.12635496 33.82311,8.00405486 33.6582518,7.99058368" id="Path"></path>
                            <path d="M21,15.5608868 L19.3861239,20.4492009 C19.3861239,20.4492009 17.9721415,19.680753 16.238854,19.680753 C13.6978265,19.680753 13.5699587,21.3045 13.5699587,21.7136658 C13.5699587,23.9462621 19.2853751,24.8017097 19.2853751,30.0311933 C19.2853751,34.1455664 16.7226232,36.7949002 13.2671291,36.7949002 C9.12053613,36.7949002 7,34.1670936 7,34.1670936 L8.11027796,30.4317482 C8.11027796,30.4317482 10.2900095,32.3372791 12.1292946,32.3372791 C13.3311359,32.3372791 13.8200081,31.3737501 13.8200081,30.6697354 C13.8200081,27.7574725 9.13103384,27.6275668 9.13103384,22.842138 C9.13103384,18.8144676 11.9700795,14.9168514 17.7009508,14.9168514 C19.9091136,14.9168514 21,15.5608868 21,15.5608868" id="Path"></path>
                        </g>
                        <path d="M16.8409091,9.69595344 C19.7780598,9.69595344 23.4886364,8.82457259 23.4886364,6.39051477 C23.4886364,3.95645694 19.7780598,0.881450312 16.8409091,0.881450312 C13.9037584,0.881450312 9.97159091,7.26189561 9.97159091,9.69595344 C9.97159091,12.1300113 13.9037584,9.69595344 16.8409091,9.69595344 Z" id="Oval"></path>
                    </g>
                    <g id="shopify-logo" transform="translate(1.9024, 1.9024)" fill-rule="nonzero">
                        <path d="M30.0354973,7.77864538 C30.008514,7.57785646 29.8368143,7.46673492 29.6949171,7.45449505 C29.5532883,7.4423927 26.5558602,7.21478608 26.5558602,7.21478608 C26.5558602,7.21478608 24.4741189,5.09756316 24.2456335,4.86321773 C24.0170138,4.62900983 23.5705141,4.70024864 23.3972035,4.75250877 C23.3716969,4.76021026 22.9423805,4.89594908 22.2322231,5.12108022 C21.5368327,3.07110783 20.3095625,1.18726765 18.150496,1.18726765 C18.0908911,1.18726765 18.029541,1.18974313 17.9681909,1.19331882 C17.3541531,0.361420061 16.5935195,0 15.9365232,0 C10.9070246,0 8.50416867,6.44106109 7.75078427,9.71419559 C5.79644179,10.3345783 4.40807733,10.7756263 4.23073934,10.8326999 C3.13986236,11.1832554 3.10536133,11.2184622 2.96212164,12.2715038 C2.8543227,13.0687459 0,35.682117 0,35.682117 L22.241486,39.9512195 L34.2926829,37.2804518 C34.2926829,37.2804518 30.0622121,7.97943431 30.0356315,7.77864538 L30.0354973,7.77864538 Z M21.0029393,5.51055572 L19.120955,6.10728389 C19.1216262,5.97140755 19.1222974,5.83773164 19.1222974,5.6915408 C19.1222974,4.41749383 18.949658,3.39168247 18.6727101,2.57848734 C19.7852005,2.72151506 20.5261001,4.01825394 21.0029393,5.51055572 Z M17.2926688,2.83112381 C17.6019699,3.62506522 17.8030693,4.76447359 17.8030693,6.30202164 C17.8030693,6.38068689 17.802398,6.45261333 17.8017268,6.52536494 C16.5778128,6.91374022 15.247845,7.33539696 13.9149238,7.75842897 C14.6633412,4.79940536 16.0662041,3.37022832 17.2926688,2.83112381 Z M15.7983848,1.3820054 C16.0154594,1.3820054 16.2341449,1.45750754 16.4434333,1.60507364 C14.8315505,2.38209927 13.103814,4.33910363 12.374191,8.24719871 L9.301854,9.22198767 C10.1564593,6.24109733 12.1857107,1.3820054 15.7982506,1.3820054 L15.7983848,1.3820054 Z" id="Shape" fill="#95BF46"></path>
                        <path d="M30.3745199,7.29575032 C30.226027,7.28358875 27.083325,7.05486835 27.083325,7.05486835 C27.083325,7.05486835 24.9006897,4.9272849 24.6611304,4.69179271 C24.5714717,4.60417414 24.450566,4.55925926 24.3241711,4.53991131 L22.5609756,39.9512195 L35.195122,37.2676589 C35.195122,37.2676589 30.7594756,7.82325834 30.7316068,7.62148687 C30.7033157,7.41971539 30.5232944,7.30805009 30.3745199,7.29575032" id="Path" fill="#5E8E3E"></path>
                        <path d="M18.9512195,14.2077662 L17.4947947,18.6710095 C17.4947947,18.6710095 16.2187619,17.9693832 14.6545756,17.9693832 C12.3614532,17.9693832 12.2460602,19.4519347 12.2460602,19.8255209 C12.2460602,21.8639785 17.4038751,22.6450393 17.4038751,27.4197852 C17.4038751,31.1763867 15.0911477,33.5953437 11.972775,33.5953437 C8.23072773,33.5953437 6.31707317,31.196042 6.31707317,31.196042 L7.31903133,27.7855092 C7.31903133,27.7855092 9.28610611,29.5253418 10.9459488,29.5253418 C12.0305373,29.5253418 12.4717146,28.6455979 12.4717146,28.0028019 C12.4717146,25.3437792 8.24020127,25.2251697 8.24020127,20.8558651 C8.24020127,17.178427 10.8022668,13.6197339 15.9740288,13.6197339 C17.9667611,13.6197339 18.9512195,14.2077662 18.9512195,14.2077662" id="Path" fill="#FFFFFF"></path>
                    </g>
                </g>
            </g>
        </g>
    </g>
</svg>