<svg id="Capa_1" data-name="Capa 1" xmlns="http://www.w3.org/2000/svg" viewBox="0 0 1319.64 543.72"><defs><style>.cls-1{fill:#7e00fb;}</style></defs><path class="cls-1" d="M661.81,591.83c0-7.83,5.79-15,20.77-15,15.33,0,27.59,3.74,40.87,15.32l31.68-22.82c-17.71-23.5-50.41-36.44-79.36-36.44-38.49,0-67.78,33-67.78,61,.34,48.36,85.15,54.15,93.33,76.63,1,.68,1.7,1.36,1.7,2.38,0,8.52-8.18,15.67-26.57,15.67-18.05,0-32-6.13-43.94-19.75l-34.4,23.5c14.65,26.91,50.75,42.23,83.79,42.23,40.87,0,78-29.63,78-63C760.24,616.36,661.81,614,661.81,591.83Z" transform="translate(-300.18 -268.14)"/><path class="cls-1" d="M903.68,532.91a28,28,0,0,0-7.5-.68c-17.71,0-34.74,7.83-48,19.41V490.05a45,45,0,0,0-45-45H793V731.48h55.18V620.1c0-23.16,17.37-40.87,39.17-40.87,22.82,0,36.78,17.71,36.78,40.87l.34,111.38h54.84V618.74a96.87,96.87,0,0,0-2-20.44C971.12,561.52,936.38,537,903.68,532.91Z" transform="translate(-300.18 -268.14)"/><path class="cls-1" d="M1011.63,731.48h55.51V579.63a45,45,0,0,0-45-45h-10.5Z" transform="translate(-300.18 -268.14)"/><path class="cls-1" d="M1589.17,659.27c-2.39-6.47-4.09-15-4.09-25.88l-.78-146a45,45,0,0,0-45-44.77h-10.06l.68,192.1c0,6.13.34,11.92.34,17.71,2,47.17,24.41,76.57,77.16,78.9l12.42-52.08C1610.85,678.7,1593,675.85,1589.17,659.27Z" transform="translate(-300.18 -268.14)"/><ellipse class="cls-1" cx="739.21" cy="223.05" rx="27.76" ry="27.25"/><path class="cls-1" d="M548.1,583.16a3.1,3.1,0,0,0-2.13-2.27l-67.91-20.36a3.12,3.12,0,0,0-3,.71l-51.59,48.63a3.1,3.1,0,0,0-.89,3l16.31,69a3.15,3.15,0,0,0,2.14,2.27l67.9,20.36a3.14,3.14,0,0,0,3-.72l51.58-48.62a3.09,3.09,0,0,0,.9-3Zm-69.38-13.37,58.37,17.5-9.76,9.21-1.06,1L467.9,580Zm-31.43,29.63,59,16.94-13.51,12.73-58.38-17.5Zm65.32,91.11L501,643.91l-2.14-8.54,12.35-11,5.4,21.59a1.72,1.72,0,0,0,1.21,1.21,1.84,1.84,0,0,0,1.71-.38L536,632a1.62,1.62,0,0,0,.51-1.6L530.68,607l11.74-10.46,13.8,55.15Z" transform="translate(-300.18 -268.14)"/><path class="cls-1" d="M538.42,300.06a2.21,2.21,0,0,0-.51-.05,92.39,92.39,0,0,0-10.84-13c-14.76-14.65-31.89-21.1-48.26-18.18-15,2.67-27.25,12.33-35.54,27.94A83.27,83.27,0,0,0,436.79,313a84.45,84.45,0,0,0-12.19-13.47c-13.26-11.69-28.17-16.41-43.11-13.64-16.34,3-30.11,15.1-38.77,34a92.08,92.08,0,0,0-5.56,16,2.92,2.92,0,0,0-.47.23,109.41,109.41,0,0,0-20.37,19.25c-12.95,15.88-18.27,32.54-15.37,48.19,7.28,39.27,37.82,62,54.22,74.23,2.29,1.7,4.27,3.17,5.81,4.42,28.66,23.18,112.66,64.19,116.22,65.92a3,3,0,0,0,.69.24h0a3,3,0,0,0,.5.06l.16,0h0a2.71,2.71,0,0,0,.75-.1,2.5,2.5,0,0,0,.25-.09,4.89,4.89,0,0,0,.48-.2c.09,0,.17-.12.26-.18a2.63,2.63,0,0,0,.37-.29c.08-.08.15-.17.23-.26s.14-.14.2-.23l.3-.43c4-4.12,67.22-69.85,85.69-101.32,1-1.71,2.34-3.78,3.88-6.18,11-17.21,31.63-49.24,24.62-88.57C588.91,313,540.48,300.57,538.42,300.06Zm-187.8,28.1c7.51-16.28,19.23-26.65,33-29.18a37.82,37.82,0,0,1,6.91-.64c24.69,0,40.85,24.56,43,28.05l23.26,124.76,14.84,82.6c-62.23-44.13-93.27-81.28-109.35-109.84-11.36-20.72-19.09-43.75-19-67.93A84.13,84.13,0,0,1,350.62,328.16ZM561.08,435c-1.49,2.36-2.78,4.41-3.79,6.16-10,17.27-34.83,46.41-54.29,68.19a415.27,415.27,0,0,0,24.93-48c9.8-22.5,16.4-44,19.82-64.27,5.52-30.56,2-50.65-.15-62.94a70.28,70.28,0,0,0-5.4-16.84c-.67-1.79-1.37-3.57-2.12-5.31,12.38,4.52,39.11,17,43.46,41.9C589.77,389.53,571.11,419.12,561.08,435Z" transform="translate(-300.18 -268.14)"/><path class="cls-1" d="M1441.71,548.71a101,101,0,0,0-143.53,36.57,101,101,0,0,0-143.52-36.57v-14.1h-55.18V811.86h55.18V718.38a101,101,0,0,0,143.52-36.58,101,101,0,0,0,143.53,36.58v13.1h55.17V534.61h-55.17ZM1209.44,684a50.43,50.43,0,1,1,50.42-50.43A50.43,50.43,0,0,1,1209.44,684Zm177.49,0a50.43,50.43,0,1,1,50.42-50.43A50.43,50.43,0,0,1,1386.93,684Z" transform="translate(-300.18 -268.14)"/></svg>